Coordinates
version=1
nRows=26
nColumns=22
inDegrees=yes

Units are S.I. units (second, meters, Newtons, ...)
If the header above contains a line with 'inDegrees', this indicates whether rotational values are in degrees (yes) or radians (no).

endheader
time	pelvis_tilt	pelvis_list	pelvis_rotation	pelvis_tx	pelvis_ty	pelvis_tz	hip_flexion_r	hip_adduction_r	hip_rotation_r	knee_angle_r	ankle_angle_r	subtalar_angle_r	hip_flexion_l	hip_adduction_l	hip_rotation_l	knee_angle_l	ankle_angle_l	subtalar_angle_l	lumbar_extension	lumbar_bending	lumbar_rotation
      0.95000000	     -3.88724762	     -7.98134540	      3.68646960	     -1.07176183	      0.97626380	     -0.26730623	      6.68940171	      8.19284386	     -5.14372277	    -14.27281778	      9.56388844	     -0.79343094	      4.12512656	     -7.96045550	      4.14146798	     -9.38085089	     11.89808832	     -1.84348116	      1.71405795	      7.11487935	     -6.24739949
      0.96000000	     -3.88920084	     -7.98288716	      3.68455771	     -1.07178794	      0.97626046	     -0.26735966	      6.69262735	      8.19102819	     -5.14226943	    -14.27175983	      9.56387054	     -0.79294647	      4.12514847	     -7.95901428	      4.13922017	     -9.37541196	     11.89819658	     -1.84432688	      1.70677530	      7.11625003	     -6.24965941
      0.97000000	     -3.89123073	     -7.98413230	      3.68338277	     -1.07180971	      0.97625592	     -0.26741158	      6.69615848	      8.18895104	     -5.14015521	    -14.27164640	      9.56362544	     -0.79231990	      4.12446451	     -7.95745983	      4.13657152	     -9.36879449	     11.89838255	     -1.84533774	      1.69948680	      7.11806508	     -6.25306995
      0.98000000	     -3.89073838	     -7.98324734	      3.67939875	     -1.07180727	      0.97625350	     -0.26745571	      6.70054043	      8.18549180	     -5.12954067	    -14.28252335	      9.56161482	     -0.78810013	      4.10989269	     -7.95495348	      4.12814917	     -9.34609306	     11.89718403	     -1.85124369	      1.69262474	      7.11814161	     -6.26994944
      0.99000000	     -3.89319185	     -7.98425279	      3.68040929	     -1.07181868	      0.97624749	     -0.26750134	      6.70251094	      8.18350646	     -5.12951831	    -14.27984118	      9.56218831	     -0.78772065	      4.11126264	     -7.95354611	      4.12775467	     -9.34273600	     11.89700075	     -1.85183705	      1.68576681	      7.11961730	     -6.26953383
      1.00000000	     -3.89561683	     -7.98502205	      3.68310746	     -1.07182480	      0.97624230	     -0.26754821	      6.70422901	      8.18150656	     -5.12917880	    -14.27778923	      9.56269501	     -0.78729216	      4.11262914	     -7.95161071	      4.12752028	     -9.33890985	     11.89696161	     -1.85247600	      1.67922389	      7.12150657	     -6.26978274
      1.01000000	     -3.89791949	     -7.98557447	      3.68729908	     -1.07182501	      0.97623746	     -0.26759392	      6.70573122	      8.17937537	     -5.12877569	    -14.27605420	      9.56323960	     -0.78679380	      4.11402172	     -7.94955093	      4.12792525	     -9.33499461	     11.89699040	     -1.85319215	      1.67287826	      7.12317956	     -6.27080052
      1.02000000	     -3.90029101	     -7.98603790	      3.69283099	     -1.07182097	      0.97623221	     -0.26763919	      6.70705752	      8.17715308	     -5.12853286	    -14.27443292	      9.56384524	     -0.78631106	      4.11571639	     -7.94732012	      4.12915876	     -9.33150918	     11.89705431	     -1.85389158	      1.66652987	      7.12458035	     -6.27228618
      1.03000000	     -3.90258387	     -7.98630034	      3.70012674	     -1.07181445	      0.97622676	     -0.26768484	      6.70816855	      8.17480824	     -5.12862601	    -14.27284116	      9.56456310	     -0.78582723	      4.11805133	     -7.94471600	      4.13167757	     -9.32867543	     11.89707397	     -1.85461567	      1.65998505	      7.12563832	     -6.27415034
      1.04000000	     -3.90019534	     -7.97792240	      3.74763532	     -1.07180098	      0.97622091	     -0.26778490	      6.70129983	      8.15739591	     -5.17750593	    -14.26512090	      9.57567674	     -0.77528955	      4.12539754	     -7.92828427	      4.20173846	     -9.33263351	     11.89103263	     -1.86981076	      1.65473130	      7.11437865	     -6.32731196
      1.05000000	     -3.90314480	     -7.97896821	      3.75294582	     -1.07179013	      0.97621553	     -0.26782023	      6.70334177	      8.15689588	     -5.17738489	    -14.26427763	      9.57573884	     -0.77510273	      4.12875018	     -7.92691178	      4.20203100	     -9.33089331	     11.89102979	     -1.87021645	      1.64798505	      7.11558843	     -6.32589403
      1.06000000	     -3.90557528	     -7.97986648	      3.76200070	     -1.07177417	      0.97620933	     -0.26786228	      6.70484531	      8.15539534	     -5.17734164	    -14.26415352	      9.57577175	     -0.77495552	      4.13311050	     -7.92517876	      4.20438933	     -9.33122848	     11.89091500	     -1.87067840	      1.64176606	      7.11684671	     -6.32349640
      1.07000000	     -3.90573092	     -7.97806714	      3.78708871	     -1.07177942	      0.97620078	     -0.26791359	      6.70637073	      8.15004947	     -5.19462535	    -14.26520339	      9.57714650	     -0.77403284	      4.15630456	     -7.91787143	      4.24688066	     -9.36465832	     11.88995752	     -1.87395047	      1.63242256	      7.11131146	     -6.32239781
      1.08000000	     -3.90924893	     -7.97874666	      3.79617067	     -1.07175262	      0.97619026	     -0.26795344	      6.70853290	      8.14791819	     -5.19627639	    -14.26482523	      9.57758475	     -0.77407462	      4.16029413	     -7.91586328	      4.24812735	     -9.36284102	     11.89118374	     -1.87442933	      1.62866126	      7.11333638	     -6.32333547
      1.09000000	     -3.92914527	     -7.97770093	      3.85159882	     -1.07175564	      0.97614407	     -0.26804075	      6.73661212	      8.13567929	     -5.26785364	    -14.27290601	      9.58757212	     -0.77492375	      4.21374598	     -7.90523999	      4.32712088	     -9.39976349	     11.90638406	     -1.88176752	      1.64855115	      7.10621555	     -6.38161998
      1.10000000	     -3.93149012	     -7.97864844	      3.86064249	     -1.07171274	      0.97613370	     -0.26807191	      6.73695351	      8.13489719	     -5.26753870	    -14.27375350	      9.58786118	     -0.77502409	      4.21739060	     -7.90404589	      4.32959954	     -9.40198970	     11.90546718	     -1.88179252	      1.64670787	      7.10788440	     -6.37544820
      1.11000000	     -3.93364894	     -7.97875996	      3.87386250	     -1.07168767	      0.97612101	     -0.26809372	      6.73742246	      8.13371232	     -5.27669065	    -14.27253745	      9.59172884	     -0.77566467	      4.23421668	     -7.90135246	      4.35644264	     -9.42676181	     11.90511417	     -1.88153757	      1.64236723	      7.10467615	     -6.35840509
      1.12000000	     -3.93495253	     -7.97888413	      3.88204133	     -1.07161801	      0.97611068	     -0.26811551	      6.73586243	      8.13265179	     -5.27695388	    -14.27555244	      9.59210229	     -0.77582234	      4.23499384	     -7.90013779	      4.35885932	     -9.42999009	     11.90616423	     -1.88155455	      1.64546755	      7.10545864	     -6.35731258
      1.13000000	     -3.94786907	     -7.97740225	      3.92561771	     -1.07160452	      0.97607170	     -0.26817417	      6.75463534	      8.12360189	     -5.32862813	    -14.28268996	      9.60824574	     -0.77879257	      4.27802146	     -7.89142687	      4.42077040	     -9.46853026	     11.92975273	     -1.87903296	      1.65736352	      7.09972489	     -6.39441726
      1.14000000	     -3.94914197	     -7.97765525	      3.93125789	     -1.07152741	      0.97606443	     -0.26818119	      6.75218294	      8.12388783	     -5.32842886	    -14.28536800	      9.60821712	     -0.77882238	      4.27763508	     -7.89145480	      4.42185497	     -9.47100260	     11.92894544	     -1.87880714	      1.66104705	      7.09980103	     -6.39116398
      1.15000000	     -3.95125096	     -7.97818090	      3.94542532	     -1.07147440	      0.97605525	     -0.26818984	      6.75090542	      8.12408519	     -5.33747870	    -14.28342650	      9.61370495	     -0.77934382	      4.28713903	     -7.89098067	      4.43823205	     -9.48419506	     11.92817679	     -1.87714747	      1.66158410	      7.09776278	     -6.37725169
      1.16000000	     -3.95237143	     -7.97771626	      3.94964741	     -1.07138881	      0.97605068	     -0.26819039	      6.74845025	      8.12404221	     -5.33767129	    -14.28673128	      9.61400600	     -0.77939577	      4.28517662	     -7.89053212	      4.43945066	     -9.48700850	     11.92866158	     -1.87701029	      1.66644811	      7.09843081	     -6.37741753
      1.17000000	     -3.95373913	     -7.97721447	      3.95667546	     -1.07130738	      0.97604739	     -0.26818660	      6.74644054	      8.12427586	     -5.33862471	    -14.28958693	      9.61519703	     -0.77948726	      4.28429213	     -7.89048703	      4.44111861	     -9.48917674	     11.92984702	     -1.87691117	      1.67026987	      7.09792220	     -6.37728321
      1.18000000	     -3.95552523	     -7.97647892	      3.96388040	     -1.07122472	      0.97604378	     -0.26817663	      6.74467369	      8.12460992	     -5.34097681	    -14.29208319	      9.61738053	     -0.77961234	      4.28353663	     -7.89046031	      4.44342000	     -9.49099999	     11.93179748	     -1.87690655	      1.67404536	      7.09711749	     -6.37832580
      1.19000000	     -3.95847710	     -7.97536470	      3.96488841	     -1.07115604	      0.97604427	     -0.26815586	      6.74421187	      8.12503939	     -5.34122718	    -14.29254811	      9.61754805	     -0.77961122	      4.28277176	     -7.89060603	      4.44357564	     -9.49150164	     11.93196444	     -1.87692236	      1.67307757	      7.09760278	     -6.37852223
      1.20000000	     -3.96106927	     -7.97423886	      3.97280652	     -1.07105535	      0.97604166	     -0.26813216	      6.74260905	      8.12564508	     -5.34504206	    -14.29661898	      9.62105171	     -0.77975898	      4.28015970	     -7.89130604	      4.44495242	     -9.49103998	     11.93566276	     -1.87748808	      1.67966097	      7.09644417	     -6.38373747
